# xmcd CD database file
#
# Track frame offsets:
#	150
#	39012
#	78454
#	89398
#	108090
#	118210
#	153837
#	175514
#	189056
#	213618
#	229747
#	268747
#	280299
#	289676
#	334560
#
# Disc length: 4686 seconds
#
# Revision: 5
# Processed by: cddbd v1.5.1PL2 Copyright (c) Steve Scherf et al.
# Submitted via: CDex 1.51
#
DISCID=c1124c0f
DTITLE=小澤征爾 - 小澤征爾 - ニューイヤー・コンサート 2002
DYEAR=2002
DGENRE=
TTITLE0=喜歌劇 《こうもり》 序曲
TTITLE1=ワルツ 《芸術家の生活》
TTITLE2=《アンテン・ポルカ》
TTITLE3=ポルカ・マズルカ 《おしゃべり女》
TTITLE4=ポルカ・シュネル 《前進》
TTITLE5=ワルツ 《水彩画》
TTITLE6=ポルカ・マズルカ 《とんぼ》
TTITLE7=ポルカ・シュネル 《おしゃべりな可愛いお口》
TTITLE8=悪魔の踊り
TTITLE9=エリーゼ・ポルカ
TTITLE10=ワルツ 《ウィーン気質》
TTITLE11=ポルカ・シュネル 《チク・タク・ポルカ》
TTITLE12=ポルカ・シュネル 《大急ぎで》
TTITLE13=ワルツ 《美しく青きドナウ》
TTITLE14=ラデツキー行進曲
EXTD=YEAR: 2002
EXTT0=
EXTT1=
EXTT2=
EXTT3=
EXTT4=
EXTT5=
EXTT6=
EXTT7=
EXTT8=
EXTT9=
EXTT10=
EXTT11=
EXTT12=
EXTT13=
EXTT14=
PLAYORDER=
